<?xml version="1.0" standalone="no"?><!DOCTYPE svg PUBLIC "-//W3C//DTD SVG 1.1//EN" "http://www.w3.org/Graphics/SVG/1.1/DTD/svg11.dtd"><svg t="1675750582528" class="icon" viewBox="0 0 1024 1024" version="1.1" xmlns="http://www.w3.org/2000/svg" p-id="3019" width="48" height="48" xmlns:xlink="http://www.w3.org/1999/xlink"><path d="M896 256l0 304L896 768l0 64c0 35.392-28.608 64-64 64L256 896c-35.392 0-64-28.608-64-64l0-64L192 624 192 256l4.8 0L256 256l99.328 0c72.832 0 72.832 64 0 64L256 320l0 304L256 832l64 0 448 0 64 0 0-64L832 560 832 320l-94.976 0c-72.832 0-72.832-64 0-64L832 256l63.488 0L896 256zM704 474.176c0-8.448 2.624-16.832-3.776-23.168-12.864-12.864-33.6-12.864-46.528 0L574.208 527.872 574.208 98.24c0-18.816-11.584-34.048-29.696-33.984-18.112-0.064-30.912 15.168-30.912 33.92L513.472 527.872 442.496 451.008c-12.8-12.864-33.6-12.864-46.464 0C383.168 463.744 377.344 484.544 390.208 497.344L523.136 630.4c0.576 0.64 1.408 0.896 2.048 1.344 2.624 2.24 5.376 4.352 8.64 5.76 3.648 1.344 5.568 2.048 9.344 2.24C543.68 639.744 544.064 640 544.576 640c0.704 0 1.344-0.384 2.048-0.384C550.144 639.36 547.328 638.848 550.72 637.504c3.776-1.6 10.432-3.968 13.312-6.784C564.224 630.592 564.416 630.528 564.544 630.4l129.792-132.992C700.736 491.008 704 482.624 704 474.176z" fill="#edffff" p-id="3020"></path></svg>