<?xml version="1.0" standalone="no"?><!DOCTYPE svg PUBLIC "-//W3C//DTD SVG 1.1//EN" "http://www.w3.org/Graphics/SVG/1.1/DTD/svg11.dtd"><svg t="1675301734191" class="icon" viewBox="0 0 1024 1024" version="1.1" xmlns="http://www.w3.org/2000/svg" p-id="3414" width="48" height="48" xmlns:xlink="http://www.w3.org/1999/xlink"><path d="M868.7 126.6H157.3c-32.7 0-59.3 26.5-59.3 59.3 0 32.7 26.5 59.3 59.3 59.3h711.4c32.7 0 59.3-26.5 59.3-59.3 0-32.7-26.5-59.3-59.3-59.3z m0 652.2H157.3c-32.7 0-59.3 26.5-59.3 59.3 0 32.7 26.5 59.3 59.3 59.3h711.4c32.7 0 59.3-26.5 59.3-59.3s-26.5-59.3-59.3-59.3z m0-326.1H157.3c-32.7 0-59.3 26.5-59.3 59.3 0 32.7 26.5 59.3 59.3 59.3h711.4c32.7 0 59.3-26.5 59.3-59.3 0-32.7-26.5-59.3-59.3-59.3z" p-id="3415" fill="#edffff"></path></svg>